<svg id="Layer_1" data-name="Layer 1" xmlns="http://www.w3.org/2000/svg" viewBox="0 0 6216.1 1886.15" fill="currentColor">
  <g>
    <path d="M1059.25,7.6A122.66,122.66,0,0,0,990,47.21a113,113,0,0,0-18.41,28.2A118,118,0,0,0,996.15,212a121.63,121.63,0,0,0,102.8,32.6c49.9-7.52,90.5-47.25,99.17-97,2-11.3,2-31,0-41.7-6.84-36.9-30.85-69.84-63-86.5A129.22,129.22,0,0,0,1101,7.5c-10.6-1.87-31.16-1.82-41.7.1Z" transform="translate(0.35 -6.13)"/>
    <path d="M1441.65,739v717h178v-252.3c0-252.1.32-279.87,3.54-306.7,11.6-96.7,57.25-180.69,130.36-239.89,77.68-62.91,182-90.11,287.6-75,71.1,10.17,139,42.42,190.7,90.6,56.76,52.88,93.8,121.19,108.23,199.59,4.65,25.23,6,41.1,6,71.7,0,20.9-.48,32.5-1.78,43.5-5.64,47.7-17.47,88-37.62,128-34,67.5-87.35,121.22-154,155-38.29,19.39-74.3,30.45-119,36.52-19.58,2.66-57.6,3.67-78,2.07-85.6-6.73-160.35-38.61-220.5-94.06-5.5-5.07-11.44-10.86-13.2-12.87l-3.2-3.65,0,95.25,0,95.25,9.2,6.83q104.24,77.29,246.8,86.12a508.42,508.42,0,0,0,335.6-99.72c20.95-15.62,36.3-29,57.4-50.13,27.81-27.81,45.2-48.9,65.82-79.8,74.06-111,104.92-246.7,87.12-383.1-13-99.9-52.65-193.73-114.31-270.7-73.6-91.87-177.13-156.8-289.23-181.37-39-8.55-67.4-11.54-109.9-11.58-32.7,0-48.54.93-74,4.52-113.5,16-209.11,68.15-279.54,152.43a369,369,0,0,0-23.8,30.8l-9.16,12.9V22h-179V739Z" transform="translate(0.35 -6.13)"/>
    <path d="M2737.65,739v717h178v-250.7c0-249.9.36-282.35,3.5-308.3,11.71-96.9,57.21-180.65,130.3-239.82,77.75-63,182.1-90.18,287.7-75.07,71.1,10.17,139,42.42,190.7,90.6,56.76,52.88,93.8,121.19,108.23,199.59,4.65,25.23,6,41.1,6,71.7,0,20.9-.48,32.5-1.78,43.5-5.64,47.7-17.47,88-37.62,128-34,67.5-87.35,121.22-154,155-38.29,19.39-74.3,30.45-119,36.52-19.58,2.66-57.6,3.67-78,2.07-85.6-6.73-160.35-38.61-220.5-94.06-5.5-5.07-11.44-10.86-13.2-12.87l-3.2-3.65-.05,95.25,0,95.25,9.2,6.83q104.24,77.29,246.8,86.12a508.42,508.42,0,0,0,335.6-99.72c20.95-15.62,36.3-29,57.4-50.13,27.81-27.81,45.2-48.9,65.82-79.8,74.06-111,104.92-246.7,87.12-383.1-13-99.9-52.65-193.73-114.31-270.7-73.6-91.87-177.13-156.8-289.23-181.37-39-8.55-67.4-11.54-109.9-11.58-32.7,0-48.54.93-74,4.52-113.5,16-209.11,68.15-279.54,152.43a369,369,0,0,0-23.8,30.8l-9.16,12.9V22h-179V739Z" transform="translate(0.35 -6.13)"/>
    <path d="M366.15,406.07c-142.9,9.65-257.68,80-305.73,187.44-21,46.91-28.79,101.7-22.19,155.6,12,98.13,69.32,166.35,179.92,214.15,40,17.28,69.6,27,165.4,54.24,78.9,22.43,110.24,33,139.8,47,46.2,21.94,73.79,49.8,82.31,83.1,5.5,21.48,4.2,49-3.33,70.9C583.61,1273,527,1305.8,439.15,1313.1c-18.2,1.51-62.93.63-78.5-1.56-86.6-12.12-151.16-51.63-188.81-115.53-5.77-9.8-13.59-26.63-16.64-35.8-1.39-4.2-2.1-5.17-3.4-4.7-.91.33-35.5,20-76.9,43.8-44.5,25.55-75.25,43.78-75.25,44.6,0,2.31,16.23,34.6,23.41,46.6a362.22,362.22,0,0,0,54,69c42.52,42.61,92.07,73.45,152.07,94.66,99.56,35.19,225,38.33,327.4,8.21,124.3-36.57,207-119.4,228-228.47,4.7-24.36,6.25-47.6,5-75-4.34-95.5-46.88-164.39-132.59-214.79-17-10-45.2-23.49-67.8-32.46-35.65-14.14-67.7-24.31-142.4-45.16-87.5-24.43-115.82-34-148.6-50C237.85,787,211.75,747.67,217.59,695c3.22-29.1,14-51.22,35-72,25.5-25.28,61.1-41.45,107.1-48.64,16.33-2.56,63.5-2.56,80,0,48,7.43,87.22,23.71,119,49.4,10.19,8.24,26.29,25,33.92,35.28a222.2,222.2,0,0,1,21.06,35.2c1.92,4.2,4,7.72,4.52,7.73.82,0,148.2-82.33,149.3-83.43.64-.64-15.28-28.9-22.48-39.9-62.23-95.06-164.12-155.38-287.32-170.08a532.61,532.61,0,0,0-91.5-2.46Z" transform="translate(0.35 -6.13)"/>
    <path d="M4508.65,406.08c-99.6,6.74-178.81,40.66-241.53,103.43a426.3,426.3,0,0,0-53.16,66.1c-.95,1.48-1.23-14.15-1.26-70.85l-.05-72.75h-179V1456h179l.29-292.7c.32-315.4,0-296.61,5.24-331.8,18.68-126.2,84.78-210,191-242,27.6-8.33,55.8-12.45,90.5-13.23,42.3-1,74.39,3.27,107.5,14.17,80,26.35,131.72,87.66,148.88,176.56,6.57,34,6.1,7.1,6.37,364.8l.25,324.2h179.1l-.35-332.75c-.27-250.6-.65-335.59-1.57-344.25-3.91-37-7.79-60.54-14.21-86.2-23.82-95.3-74.51-171.21-147.67-221.19-51.92-35.47-112.6-56.55-184.8-64.2-17.11-1.82-66-2.59-84.5-1.34Z" transform="translate(0.35 -6.13)"/>
    <path d="M5620.15,406c-72.6,5.28-137.06,22.71-199.3,53.89C5309.69,515.58,5221.33,610.61,5173.42,726c-23,55.39-35.92,109.6-40.76,171-1.38,17.43-1.38,64.6,0,82.5,8.06,105,44.12,202.86,104.65,284,27.53,36.9,63.16,73.31,98.85,101,102.22,79.32,230.4,117.11,361,106.42q132.3-10.83,234.3-87.23l9.2-6.9v-186l-11.6,11.15c-84.14,80.84-205.6,115.68-326,93.5-145.1-26.73-255.62-135.21-285.21-280-8.57-41.91-9.89-91-3.61-134.5,9-62.4,35.19-122.59,75.24-173,10.26-12.91,40.28-42.76,53.68-53.37,65.22-51.64,144.5-78.63,231-78.63,136.4,0,255.4,68.41,319.41,183.6,23.3,41.94,39.06,94.5,43,143.4.59,7.4,1.54,19.29,2.1,26.3,1.37,17.33,1.39,468.7,0,489.7-2.11,32.4-3.22,44-5.58,58-8.88,52.7-28.93,98.66-59.8,137-9.14,11.37-31.85,33.49-43.45,42.33-49.78,38-106.5,58.8-183.2,67.33-21.68,2.41-81.9,2.4-108,0-86.3-8-149.11-30.16-199-70.3-19.06-15.33-39.57-38.25-54.67-61-6.09-9.2-20.54-34.31-21.63-37.6-.17-.49-35.45,19-78.45,43.35l-78.15,44.25,3.62,6.6a451.89,451.89,0,0,0,50.23,73.6c9.4,11.2,33.65,35.65,45.45,45.82,76.94,66.37,182.4,108.06,303.6,120.05,42.5,4.21,98.51,5.12,133.8,2.19,84-7,159.23-27.89,226.8-63,78.8-41,142.39-100.86,184.36-173.64,28.06-48.66,46.86-104.7,55.49-165.4,5.25-37,4.92-2.6,5.3-550.3l.35-506.2h-177.1v175.3l-6.16-8.9C5960,493.64,5856.35,429.24,5730.15,410.5c-29.6-4.39-82-6.53-110-4.49Z" transform="translate(0.35 -6.13)"/>
    <polygon points="991 937.89 991 1449.89 1080.5 1449.89 1170 1449.89 1170 937.89 1170 425.89 1080.5 425.89 991 425.89 991 937.89 991 937.89"/>
  </g>
</svg>
